<?xml version="1.0" standalone="no"?>
<svg xmlns="http://www.w3.org/2000/svg" xmlns:xlink="http://www.w3.org/1999/xlink" width="954pt" height="404pt" viewBox="0.00 0.00 954.37 404.00">
<g id="graph0" class="graph" transform="translate(50.94387147199842,342.450690556015) scale(0.8179020585577811)" data-name="G">

<polygon fill="white" stroke="none" points="-4,4 -4,-400 950.37,-400 950.37,4 -4,4"/>
<!-- GovernanceLockedRevenueDistributionToken -->
<g id="node1" class="node" pointer-events="visible" data-name="GovernanceLockedRevenueDistributionToken">

<ellipse fill="none" stroke="black" cx="373.99" cy="-378" rx="191.55" ry="18"/>
<text text-anchor="middle" x="373.99" y="-373.8" font-family="Times,serif" font-size="14.00">GovernanceLockedRevenueDistributionToken</text>
</g>
<!-- IGovernanceLockedRevenueDistributionToken -->
<g id="node2" class="node" pointer-events="visible" data-name="IGovernanceLockedRevenueDistributionToken">

<ellipse fill="none" stroke="black" cx="194.99" cy="-306" rx="194.98" ry="18"/>
<text text-anchor="middle" x="194.99" y="-301.8" font-family="Times,serif" font-size="14.00">IGovernanceLockedRevenueDistributionToken</text>
</g>
<!-- GovernanceLockedRevenueDistributionToken&#45;&gt;IGovernanceLockedRevenueDistributionToken -->
<g id="edge1" class="edge" data-name="GovernanceLockedRevenueDistributionToken-&gt;IGovernanceLockedRevenueDistributionToken">

<path fill="none" stroke="black" d="M330.66,-360.05C306.11,-350.45 275.17,-338.35 249.04,-328.14"/>
<polygon fill="black" stroke="black" points="250.54,-324.97 239.95,-324.58 247.99,-331.48 250.54,-324.97"/>
</g>
<!-- LockedRevenueDistributionToken -->
<g id="node3" class="node" pointer-events="visible" data-name="LockedRevenueDistributionToken">

<ellipse fill="none" stroke="black" cx="552.99" cy="-306" rx="145.25" ry="18"/>
<text text-anchor="middle" x="552.99" y="-301.8" font-family="Times,serif" font-size="14.00">LockedRevenueDistributionToken</text>
</g>
<!-- GovernanceLockedRevenueDistributionToken&#45;&gt;LockedRevenueDistributionToken -->
<g id="edge2" class="edge" data-name="GovernanceLockedRevenueDistributionToken-&gt;LockedRevenueDistributionToken">

<path fill="none" stroke="black" d="M417.32,-360.05C442.15,-350.35 473.5,-338.09 499.81,-327.8"/>
<polygon fill="black" stroke="black" points="500.92,-331.12 508.96,-324.22 498.37,-324.6 500.92,-331.12"/>
</g>
<!-- ILockedRevenueDistributionToken -->
<g id="node4" class="node" pointer-events="visible" data-name="ILockedRevenueDistributionToken">

<ellipse fill="none" stroke="black" cx="411.99" cy="-234" rx="148.18" ry="18"/>
<text text-anchor="middle" x="411.99" y="-229.8" font-family="Times,serif" font-size="14.00">ILockedRevenueDistributionToken</text>
</g>
<!-- LockedRevenueDistributionToken&#45;&gt;ILockedRevenueDistributionToken -->
<g id="edge3" class="edge" data-name="LockedRevenueDistributionToken-&gt;ILockedRevenueDistributionToken">

<path fill="none" stroke="black" d="M518.86,-288.05C499.98,-278.68 476.31,-266.93 456.05,-256.87"/>
<polygon fill="black" stroke="black" points="457.68,-253.77 447.16,-252.46 454.56,-260.04 457.68,-253.77"/>
</g>
<!-- RevenueDistributionToken -->
<g id="node5" class="node" pointer-events="visible" data-name="RevenueDistributionToken">

<ellipse fill="none" stroke="black" cx="694.99" cy="-234" rx="116.34" ry="18"/>
<text text-anchor="middle" x="694.99" y="-229.8" font-family="Times,serif" font-size="14.00">RevenueDistributionToken</text>
</g>
<!-- LockedRevenueDistributionToken&#45;&gt;RevenueDistributionToken -->
<g id="edge4" class="edge" data-name="LockedRevenueDistributionToken-&gt;RevenueDistributionToken">

<path fill="none" stroke="black" d="M587.36,-288.05C606.6,-278.57 630.78,-266.65 651.35,-256.51"/>
<polygon fill="black" stroke="black" points="652.64,-259.78 660.06,-252.22 649.55,-253.5 652.64,-259.78"/>
</g>
<!-- ERC20 -->
<g id="node6" class="node" pointer-events="visible" data-name="ERC20">

<ellipse fill="none" stroke="black" cx="637.99" cy="-90" rx="39.45" ry="18"/>
<text text-anchor="middle" x="637.99" y="-85.8" font-family="Times,serif" font-size="14.00">ERC20</text>
</g>
<!-- RevenueDistributionToken&#45;&gt;ERC20 -->
<g id="edge8" class="edge" data-name="RevenueDistributionToken-&gt;ERC20">

<path fill="none" stroke="black" d="M633.19,-218.32C613.4,-210.38 593.61,-198.29 581.99,-180 573.41,-166.5 575.66,-158.7 581.99,-144 587.26,-131.76 596.89,-121.03 606.71,-112.48"/>
<polygon fill="black" stroke="black" points="608.89,-115.22 614.47,-106.21 604.49,-109.77 608.89,-115.22"/>
</g>
<!-- IRevenueDistributionToken -->
<g id="node7" class="node" pointer-events="visible" data-name="IRevenueDistributionToken">

<ellipse fill="none" stroke="black" cx="826.99" cy="-162" rx="119.27" ry="18"/>
<text text-anchor="middle" x="826.99" y="-157.8" font-family="Times,serif" font-size="14.00">IRevenueDistributionToken</text>
</g>
<!-- RevenueDistributionToken&#45;&gt;IRevenueDistributionToken -->
<g id="edge7" class="edge" data-name="RevenueDistributionToken-&gt;IRevenueDistributionToken">

<path fill="none" stroke="black" d="M726.61,-216.23C744.32,-206.84 766.62,-195.01 785.7,-184.9"/>
<polygon fill="black" stroke="black" points="787.1,-188.12 794.29,-180.34 783.82,-181.93 787.1,-188.12"/>
</g>
<!-- IERC20 -->
<g id="node10" class="node" pointer-events="visible" data-name="IERC20">

<ellipse fill="none" stroke="black" cx="692.99" cy="-18" rx="42.88" ry="18"/>
<text text-anchor="middle" x="692.99" y="-13.8" font-family="Times,serif" font-size="14.00">IERC20</text>
</g>
<!-- ERC20&#45;&gt;IERC20 -->
<g id="edge5" class="edge" data-name="ERC20-&gt;IERC20">

<path fill="none" stroke="black" d="M645.43,-72.05C651.4,-63.26 659.78,-52.36 667.91,-42.74"/>
<polygon fill="black" stroke="black" points="670.29,-45.33 674.23,-35.5 665.02,-40.73 670.29,-45.33"/>
</g>
<!-- ERC20&#45;&gt;IERC20 -->
<g id="edge6" class="edge" data-name="ERC20-&gt;IERC20">

<path fill="none" stroke="black" d="M655.6,-73.81C663.16,-65.49 671.74,-54.94 678.87,-45.32"/>
<polygon fill="black" stroke="black" points="681.59,-47.53 684.55,-37.36 675.89,-43.47 681.59,-47.53"/>
</g>
<!-- IERC4626 -->
<g id="node8" class="node" pointer-events="visible" data-name="IERC4626">

<ellipse fill="none" stroke="black" cx="747.99" cy="-90" rx="52.2" ry="18"/>
<text text-anchor="middle" x="747.99" y="-85.8" font-family="Times,serif" font-size="14.00">IERC4626</text>
</g>
<!-- IRevenueDistributionToken&#45;&gt;IERC4626 -->
<g id="edge10" class="edge" data-name="IRevenueDistributionToken-&gt;IERC4626">

<path fill="none" stroke="black" d="M807.87,-144.05C797.92,-135.24 785.6,-124.33 774.73,-114.69"/>
<polygon fill="black" stroke="black" points="777.33,-112.32 767.53,-108.31 772.69,-117.56 777.33,-112.32"/>
</g>
<!-- IRevenueDistributionToken&#45;&gt;IERC20 -->
<g id="edge9" class="edge" data-name="IRevenueDistributionToken-&gt;IERC20">

<path fill="none" stroke="black" d="M827.91,-143.69C828.03,-124.21 825.36,-92.62 808.99,-72 792.35,-51.04 765.57,-38.06 741.93,-30.19"/>
<polygon fill="black" stroke="black" points="743.02,-26.87 732.43,-27.27 740.96,-33.56 743.02,-26.87"/>
</g>
<!-- IERC4626&#45;&gt;IERC20 -->
<g id="edge11" class="edge" data-name="IERC4626-&gt;IERC20">

<path fill="none" stroke="black" d="M734.96,-72.41C728.38,-64.04 720.26,-53.71 712.92,-44.37"/>
<polygon fill="black" stroke="black" points="715.8,-42.36 706.87,-36.66 710.29,-46.69 715.8,-42.36"/>
</g>
<!-- ERC4626 -->
<g id="node9" class="node" pointer-events="visible" data-name="ERC4626">

<ellipse fill="none" stroke="black" cx="639.99" cy="-162" rx="49.26" ry="18"/>
<text text-anchor="middle" x="639.99" y="-157.8" font-family="Times,serif" font-size="14.00">ERC4626</text>
</g>
<!-- ERC4626&#45;&gt;ERC20 -->
<g id="edge12" class="edge" data-name="ERC4626-&gt;ERC20">

<path fill="none" stroke="black" d="M639.5,-143.7C639.29,-136.41 639.04,-127.73 638.81,-119.54"/>
<polygon fill="black" stroke="black" points="642.31,-119.51 638.52,-109.62 635.31,-119.71 642.31,-119.51"/>
</g>
</g>
</svg>