<svg width="115" height="36" viewBox="0 0 115 36" fill="none" xmlns="http://www.w3.org/2000/svg">
<path d="M25.6 17.8C25.6 10.7308 19.8692 5 12.8 5C5.73075 5 0 10.7308 0 17.8C0 24.8692 5.73075 30.6 12.8 30.6C19.8692 30.6 25.6 24.8692 25.6 17.8Z" fill="#0657F9"/>
<path d="M4.16016 10.8879V13.7937L9.20592 15.8022L4.16016 17.8106V20.7163L12.5345 17.2123V14.392L4.16016 10.8879Z" fill="white"/>
<path d="M21.3757 24.7759V21.9983H12.8105V24.7759H21.3757Z" fill="white"/>
<path d="M49.376 12.704L41.144 32.288H37.568L40.448 25.664L35.12 12.704H38.888L42.32 21.992L45.8 12.704H49.376ZM61.4593 22.808H54.7873L53.6833 26H50.1553L56.1793 9.224H60.0913L66.1153 26H62.5633L61.4593 22.808ZM60.5473 20.12L58.1233 13.112L55.6992 20.12H60.5473ZM80.9189 12.704V26H77.5349V24.32C77.1029 24.896 76.5349 25.352 75.8309 25.688C75.1429 26.008 74.3909 26.168 73.5749 26.168C72.5349 26.168 71.6149 25.952 70.8149 25.52C70.0149 25.072 69.3829 24.424 68.9189 23.576C68.4709 22.712 68.2469 21.688 68.2469 20.504V12.704H71.6069V20.024C71.6069 21.08 71.8709 21.896 72.3989 22.472C72.9269 23.032 73.6469 23.312 74.5589 23.312C75.4869 23.312 76.2149 23.032 76.7429 22.472C77.2709 21.896 77.5349 21.08 77.5349 20.024V12.704H80.9189ZM83.3701 19.304C83.3701 17.96 83.6341 16.768 84.1621 15.728C84.7061 14.688 85.4421 13.888 86.3701 13.328C87.2981 12.768 88.3301 12.488 89.4661 12.488C90.3301 12.488 91.1541 12.68 91.9381 13.064C92.7221 13.432 93.3461 13.928 93.8101 14.552V8.24H97.2181V26H93.8101V24.032C93.3941 24.688 92.8101 25.216 92.0581 25.616C91.3061 26.016 90.4341 26.216 89.4421 26.216C88.3221 26.216 87.2981 25.928 86.3701 25.352C85.4421 24.776 84.7061 23.968 84.1621 22.928C83.6341 21.872 83.3701 20.664 83.3701 19.304ZM93.8341 19.352C93.8341 18.536 93.6741 17.84 93.3541 17.264C93.0341 16.672 92.6021 16.224 92.0581 15.92C91.5141 15.6 90.9301 15.44 90.3061 15.44C89.6821 15.44 89.1061 15.592 88.5781 15.896C88.0501 16.2 87.6181 16.648 87.2821 17.24C86.9621 17.816 86.8021 18.504 86.8021 19.304C86.8021 20.104 86.9621 20.808 87.2821 21.416C87.6181 22.008 88.0501 22.464 88.5781 22.784C89.1221 23.104 89.6981 23.264 90.3061 23.264C90.9301 23.264 91.5141 23.112 92.0581 22.808C92.6021 22.488 93.0341 22.04 93.3541 21.464C93.6741 20.872 93.8341 20.168 93.8341 19.352ZM102.204 11.12C101.612 11.12 101.116 10.936 100.716 10.568C100.332 10.184 100.14 9.712 100.14 9.152C100.14 8.592 100.332 8.128 100.716 7.76C101.116 7.376 101.612 7.184 102.204 7.184C102.796 7.184 103.284 7.376 103.668 7.76C104.068 8.128 104.268 8.592 104.268 9.152C104.268 9.712 104.068 10.184 103.668 10.568C103.284 10.936 102.796 11.12 102.204 11.12ZM103.86 12.704V26H100.5V12.704H103.86ZM111.091 15.464V21.896C111.091 22.344 111.195 22.672 111.403 22.88C111.627 23.072 111.995 23.168 112.507 23.168H114.067V26H111.955C109.123 26 107.707 24.624 107.707 21.872V15.464H106.123V12.704H107.707V9.416H111.091V12.704H114.067V15.464H111.091Z" fill="black"/>
</svg>
